<svg width="87" height="58" viewBox="0 0 87 58" fill="none" xmlns="http://www.w3.org/2000/svg">
<mask id="path-1-outside-1_13_2" maskUnits="userSpaceOnUse" x="10" y="19" width="71" height="23" fill="black">
<rect fill="white" x="10" y="19" width="71" height="23"/>
<path d="M22.5582 28.7672C23.2932 28.9926 23.8714 29.365 24.2928 29.8844C24.724 30.394 24.9396 30.9771 24.9396 31.6337C24.9396 32.2511 24.6848 32.8342 24.1752 33.383C23.6754 33.922 23.0482 34.3532 22.2936 34.6766C21.5488 35 20.8383 35.1617 20.1621 35.1617C19.6721 35.1617 19.1919 35.1372 18.7215 35.0882C17.9375 35.0392 17.3299 35.0147 16.8987 35.0147H14.9583V34.4855L16.3401 33.3977V24.5924L14.7819 24.1073L15.12 23.4458H16.884C17.7758 23.4458 18.6529 23.4164 19.5153 23.3576C20.1817 23.3184 20.6717 23.2988 20.9853 23.2988C21.6517 23.2988 22.2397 23.4262 22.7493 23.681C23.2589 23.9358 23.6509 24.2837 23.9253 24.7247C24.2095 25.1559 24.3516 25.641 24.3516 26.18C24.3516 26.67 24.185 27.1404 23.8518 27.5912C23.5284 28.042 23.0972 28.4291 22.5582 28.7525V28.7672ZM22.1907 26.9003C22.1907 26.1457 21.9898 25.5283 21.588 25.0481C21.196 24.5679 20.6129 24.3278 19.8387 24.3278C19.2997 24.3278 18.7999 24.4797 18.3393 24.7835V28.6643H20.3532C20.9314 28.6643 21.3822 28.5124 21.7056 28.2086C22.029 27.9048 22.1907 27.4687 22.1907 26.9003ZM20.5737 34.0151C21.2499 34.0151 21.784 33.8436 22.176 33.5006C22.5778 33.1576 22.7787 32.697 22.7787 32.1188C22.7787 31.374 22.5631 30.7713 22.1319 30.3107C21.7007 29.8501 21.0637 29.6051 20.2209 29.5757C20.1523 29.5855 20.0592 29.5904 19.9416 29.5904H18.3393V33.6329C18.9665 33.8779 19.7113 34.0004 20.5737 34.0004V34.0151ZM30.4085 35.0147H26.2043V34.4855L27.5126 33.4418V24.5924L26.2043 23.681V23.1518L28.7915 22.1669H29.4236V33.8534L30.7466 34.3532L30.4085 35.0147ZM36.7008 27.0179C37.3672 27.0179 37.9601 27.1894 38.4795 27.5324C39.0087 27.8656 39.4203 28.3213 39.7143 28.8995C40.0083 29.4777 40.1553 30.1196 40.1553 30.8252C40.1553 31.5896 39.9201 32.305 39.4497 32.9714C38.9891 33.628 38.406 34.1572 37.7004 34.559C36.9948 34.951 36.3137 35.147 35.6571 35.147C35.0005 35.147 34.4076 34.9804 33.8784 34.6472C33.359 34.3042 32.9474 33.8436 32.6436 33.2654C32.3496 32.6872 32.2026 32.0453 32.2026 31.3397C32.2026 30.5753 32.4329 29.8648 32.8935 29.2082C33.3639 28.5418 33.9519 28.0126 34.6575 27.6206C35.3631 27.2188 36.0442 27.0179 36.7008 27.0179ZM35.8482 28.3556C34.7898 28.3556 34.2606 29.1151 34.2606 30.6341C34.2606 31.5455 34.4517 32.305 34.8339 32.9126C35.2259 33.5202 35.7845 33.824 36.5097 33.824C37.0291 33.824 37.4211 33.628 37.6857 33.236C37.9503 32.844 38.0826 32.2707 38.0826 31.5161C38.0826 30.6145 37.8866 29.8648 37.4946 29.267C37.1124 28.6594 36.5636 28.3556 35.8482 28.3556ZM48.4723 28.2968C48.7369 28.6888 48.8692 29.1053 48.8692 29.5463C48.8692 30.1833 48.6095 30.7909 48.0901 31.3691C47.5707 31.9375 46.9386 32.3442 46.1938 32.5892C45.939 32.8636 45.8116 33.1478 45.8116 33.4418C45.8116 33.5986 45.9292 33.7456 46.1644 33.8828C46.3996 34.0102 46.7769 34.1817 47.2963 34.3973C47.9823 34.6717 48.5164 34.9265 48.8986 35.1617C49.2808 35.3969 49.4719 35.6811 49.4719 36.0143C49.4719 36.3181 49.2808 36.7003 48.8986 37.1609C48.5164 37.6215 48.0411 38.0233 47.4727 38.3663C46.9141 38.7093 46.3751 38.8808 45.8557 38.8808C45.2873 38.8808 44.6209 38.7877 43.8565 38.6015C43.1019 38.4153 42.4698 38.2291 41.9602 38.0429V35.7056H42.5923C43.1313 36.3818 43.6752 36.8914 44.224 37.2344C44.7728 37.5872 45.3951 37.7636 46.0909 37.7636C46.3555 37.7636 46.5907 37.7146 46.7965 37.6166C47.0121 37.5186 47.1787 37.3912 47.2963 37.2344C47.4139 37.0874 47.4727 36.9453 47.4727 36.8081C47.4727 36.5533 47.3208 36.3328 47.017 36.1466C46.723 35.9604 46.2673 35.7301 45.6499 35.4557C45.0521 35.2009 44.6013 34.9804 44.2975 34.7942C43.9937 34.5982 43.8418 34.3777 43.8418 34.1327C43.8418 33.8975 43.9986 33.6574 44.3122 33.4124C44.6356 33.1674 45.0178 32.9518 45.4588 32.7656C45.2432 32.7852 45.0815 32.795 44.9737 32.795C44.4445 32.795 43.9545 32.6823 43.5037 32.4569C43.0627 32.2217 42.7099 31.913 42.4453 31.5308C42.1905 31.1388 42.0631 30.7174 42.0631 30.2666C42.0631 29.7276 42.2542 29.2082 42.6364 28.7084C43.0186 28.1988 43.5135 27.7921 44.1211 27.4883C44.7287 27.1747 45.3461 27.0179 45.9733 27.0179C46.6887 27.0179 47.311 27.2139 47.8402 27.6059H50.1775L50.1481 28.2968H48.4723ZM45.7969 31.4867C46.2085 31.4867 46.5221 31.3838 46.7377 31.178C46.9631 30.9722 47.0758 30.6635 47.0758 30.2519C47.0758 29.6835 46.8945 29.2278 46.5319 28.8848C46.1693 28.5418 45.6891 28.3703 45.0913 28.3703C44.2485 28.3703 43.8271 28.7672 43.8271 29.561C43.8271 30.1392 44.0084 30.6047 44.371 30.9575C44.7336 31.3103 45.2089 31.4867 45.7969 31.4867ZM57.8751 28.2968C58.1397 28.6888 58.272 29.1053 58.272 29.5463C58.272 30.1833 58.0123 30.7909 57.4929 31.3691C56.9735 31.9375 56.3414 32.3442 55.5966 32.5892C55.3418 32.8636 55.2144 33.1478 55.2144 33.4418C55.2144 33.5986 55.332 33.7456 55.5672 33.8828C55.8024 34.0102 56.1797 34.1817 56.6991 34.3973C57.3851 34.6717 57.9192 34.9265 58.3014 35.1617C58.6836 35.3969 58.8747 35.6811 58.8747 36.0143C58.8747 36.3181 58.6836 36.7003 58.3014 37.1609C57.9192 37.6215 57.4439 38.0233 56.8755 38.3663C56.3169 38.7093 55.7779 38.8808 55.2585 38.8808C54.6901 38.8808 54.0237 38.7877 53.2593 38.6015C52.5047 38.4153 51.8726 38.2291 51.363 38.0429V35.7056H51.9951C52.5341 36.3818 53.078 36.8914 53.6268 37.2344C54.1756 37.5872 54.7979 37.7636 55.4937 37.7636C55.7583 37.7636 55.9935 37.7146 56.1993 37.6166C56.4149 37.5186 56.5815 37.3912 56.6991 37.2344C56.8167 37.0874 56.8755 36.9453 56.8755 36.8081C56.8755 36.5533 56.7236 36.3328 56.4198 36.1466C56.1258 35.9604 55.6701 35.7301 55.0527 35.4557C54.4549 35.2009 54.0041 34.9804 53.7003 34.7942C53.3965 34.5982 53.2446 34.3777 53.2446 34.1327C53.2446 33.8975 53.4014 33.6574 53.715 33.4124C54.0384 33.1674 54.4206 32.9518 54.8616 32.7656C54.646 32.7852 54.4843 32.795 54.3765 32.795C53.8473 32.795 53.3573 32.6823 52.9065 32.4569C52.4655 32.2217 52.1127 31.913 51.8481 31.5308C51.5933 31.1388 51.4659 30.7174 51.4659 30.2666C51.4659 29.7276 51.657 29.2082 52.0392 28.7084C52.4214 28.1988 52.9163 27.7921 53.5239 27.4883C54.1315 27.1747 54.7489 27.0179 55.3761 27.0179C56.0915 27.0179 56.7138 27.2139 57.243 27.6059H59.5803L59.5509 28.2968H57.8751ZM55.1997 31.4867C55.6113 31.4867 55.9249 31.3838 56.1405 31.178C56.3659 30.9722 56.4786 30.6635 56.4786 30.2519C56.4786 29.6835 56.2973 29.2278 55.9347 28.8848C55.5721 28.5418 55.0919 28.3703 54.4941 28.3703C53.6513 28.3703 53.2299 28.7672 53.2299 29.561C53.2299 30.1392 53.4112 30.6047 53.7738 30.9575C54.1364 31.3103 54.6117 31.4867 55.1997 31.4867ZM65.6672 35.0147C65.2458 35.1029 64.7362 35.147 64.1384 35.147C63.4818 35.147 62.8889 34.9804 62.3597 34.6472C61.8403 34.3042 61.4287 33.8436 61.1249 33.2654C60.8309 32.6872 60.6839 32.0453 60.6839 31.3397C60.6839 30.5753 60.9142 29.8648 61.3748 29.2082C61.8452 28.5418 62.4332 28.0126 63.1388 27.6206C63.8444 27.2188 64.5255 27.0179 65.1821 27.0179C66.1327 27.0179 66.8677 27.3903 67.3871 28.1351C67.9163 28.8799 68.176 29.8746 68.1662 31.1192H62.7566C62.8252 31.9032 63.0506 32.5451 63.4328 33.0449C63.815 33.5349 64.3344 33.7799 64.991 33.7799C65.6378 33.7799 66.559 33.3193 67.7546 32.3981L68.1956 33.0008L65.6672 35.0147ZM64.3442 28.3556C63.3348 28.3556 62.8056 29.0514 62.7566 30.443H66.0641C65.9759 29.9432 65.8828 29.5561 65.7848 29.2817C65.6966 29.0073 65.5398 28.7868 65.3144 28.6202C65.089 28.4438 64.7607 28.3556 64.3295 28.3556H64.3442ZM74.6116 28.679C74.4058 28.679 74.1902 28.7329 73.9648 28.8407C73.7394 28.9485 73.4846 29.1445 73.2004 29.4287V33.7358L75.2878 34.3532L74.9644 35.0147H69.9811V34.4855L71.2894 33.4418V29.4434L69.9811 28.6643V28.1351L72.5977 26.8856L73.0828 28.6643L74.5675 27.1355C74.7929 27.0571 75.0575 27.0179 75.3613 27.0179C75.7239 27.0179 76.0375 27.111 76.3021 27.2972C76.5765 27.4834 76.7823 27.748 76.9195 28.091L75.8611 29.414H75.229C75.1898 29.1494 75.1212 28.9632 75.0232 28.8554C74.9252 28.7378 74.788 28.679 74.6116 28.679Z"/>
</mask>
<path d="M22.5582 28.7672C23.2932 28.9926 23.8714 29.365 24.2928 29.8844C24.724 30.394 24.9396 30.9771 24.9396 31.6337C24.9396 32.2511 24.6848 32.8342 24.1752 33.383C23.6754 33.922 23.0482 34.3532 22.2936 34.6766C21.5488 35 20.8383 35.1617 20.1621 35.1617C19.6721 35.1617 19.1919 35.1372 18.7215 35.0882C17.9375 35.0392 17.3299 35.0147 16.8987 35.0147H14.9583V34.4855L16.3401 33.3977V24.5924L14.7819 24.1073L15.12 23.4458H16.884C17.7758 23.4458 18.6529 23.4164 19.5153 23.3576C20.1817 23.3184 20.6717 23.2988 20.9853 23.2988C21.6517 23.2988 22.2397 23.4262 22.7493 23.681C23.2589 23.9358 23.6509 24.2837 23.9253 24.7247C24.2095 25.1559 24.3516 25.641 24.3516 26.18C24.3516 26.67 24.185 27.1404 23.8518 27.5912C23.5284 28.042 23.0972 28.4291 22.5582 28.7525V28.7672ZM22.1907 26.9003C22.1907 26.1457 21.9898 25.5283 21.588 25.0481C21.196 24.5679 20.6129 24.3278 19.8387 24.3278C19.2997 24.3278 18.7999 24.4797 18.3393 24.7835V28.6643H20.3532C20.9314 28.6643 21.3822 28.5124 21.7056 28.2086C22.029 27.9048 22.1907 27.4687 22.1907 26.9003ZM20.5737 34.0151C21.2499 34.0151 21.784 33.8436 22.176 33.5006C22.5778 33.1576 22.7787 32.697 22.7787 32.1188C22.7787 31.374 22.5631 30.7713 22.1319 30.3107C21.7007 29.8501 21.0637 29.6051 20.2209 29.5757C20.1523 29.5855 20.0592 29.5904 19.9416 29.5904H18.3393V33.6329C18.9665 33.8779 19.7113 34.0004 20.5737 34.0004V34.0151ZM30.4085 35.0147H26.2043V34.4855L27.5126 33.4418V24.5924L26.2043 23.681V23.1518L28.7915 22.1669H29.4236V33.8534L30.7466 34.3532L30.4085 35.0147ZM36.7008 27.0179C37.3672 27.0179 37.9601 27.1894 38.4795 27.5324C39.0087 27.8656 39.4203 28.3213 39.7143 28.8995C40.0083 29.4777 40.1553 30.1196 40.1553 30.8252C40.1553 31.5896 39.9201 32.305 39.4497 32.9714C38.9891 33.628 38.406 34.1572 37.7004 34.559C36.9948 34.951 36.3137 35.147 35.6571 35.147C35.0005 35.147 34.4076 34.9804 33.8784 34.6472C33.359 34.3042 32.9474 33.8436 32.6436 33.2654C32.3496 32.6872 32.2026 32.0453 32.2026 31.3397C32.2026 30.5753 32.4329 29.8648 32.8935 29.2082C33.3639 28.5418 33.9519 28.0126 34.6575 27.6206C35.3631 27.2188 36.0442 27.0179 36.7008 27.0179ZM35.8482 28.3556C34.7898 28.3556 34.2606 29.1151 34.2606 30.6341C34.2606 31.5455 34.4517 32.305 34.8339 32.9126C35.2259 33.5202 35.7845 33.824 36.5097 33.824C37.0291 33.824 37.4211 33.628 37.6857 33.236C37.9503 32.844 38.0826 32.2707 38.0826 31.5161C38.0826 30.6145 37.8866 29.8648 37.4946 29.267C37.1124 28.6594 36.5636 28.3556 35.8482 28.3556ZM48.4723 28.2968C48.7369 28.6888 48.8692 29.1053 48.8692 29.5463C48.8692 30.1833 48.6095 30.7909 48.0901 31.3691C47.5707 31.9375 46.9386 32.3442 46.1938 32.5892C45.939 32.8636 45.8116 33.1478 45.8116 33.4418C45.8116 33.5986 45.9292 33.7456 46.1644 33.8828C46.3996 34.0102 46.7769 34.1817 47.2963 34.3973C47.9823 34.6717 48.5164 34.9265 48.8986 35.1617C49.2808 35.3969 49.4719 35.6811 49.4719 36.0143C49.4719 36.3181 49.2808 36.7003 48.8986 37.1609C48.5164 37.6215 48.0411 38.0233 47.4727 38.3663C46.9141 38.7093 46.3751 38.8808 45.8557 38.8808C45.2873 38.8808 44.6209 38.7877 43.8565 38.6015C43.1019 38.4153 42.4698 38.2291 41.9602 38.0429V35.7056H42.5923C43.1313 36.3818 43.6752 36.8914 44.224 37.2344C44.7728 37.5872 45.3951 37.7636 46.0909 37.7636C46.3555 37.7636 46.5907 37.7146 46.7965 37.6166C47.0121 37.5186 47.1787 37.3912 47.2963 37.2344C47.4139 37.0874 47.4727 36.9453 47.4727 36.8081C47.4727 36.5533 47.3208 36.3328 47.017 36.1466C46.723 35.9604 46.2673 35.7301 45.6499 35.4557C45.0521 35.2009 44.6013 34.9804 44.2975 34.7942C43.9937 34.5982 43.8418 34.3777 43.8418 34.1327C43.8418 33.8975 43.9986 33.6574 44.3122 33.4124C44.6356 33.1674 45.0178 32.9518 45.4588 32.7656C45.2432 32.7852 45.0815 32.795 44.9737 32.795C44.4445 32.795 43.9545 32.6823 43.5037 32.4569C43.0627 32.2217 42.7099 31.913 42.4453 31.5308C42.1905 31.1388 42.0631 30.7174 42.0631 30.2666C42.0631 29.7276 42.2542 29.2082 42.6364 28.7084C43.0186 28.1988 43.5135 27.7921 44.1211 27.4883C44.7287 27.1747 45.3461 27.0179 45.9733 27.0179C46.6887 27.0179 47.311 27.2139 47.8402 27.6059H50.1775L50.1481 28.2968H48.4723ZM45.7969 31.4867C46.2085 31.4867 46.5221 31.3838 46.7377 31.178C46.9631 30.9722 47.0758 30.6635 47.0758 30.2519C47.0758 29.6835 46.8945 29.2278 46.5319 28.8848C46.1693 28.5418 45.6891 28.3703 45.0913 28.3703C44.2485 28.3703 43.8271 28.7672 43.8271 29.561C43.8271 30.1392 44.0084 30.6047 44.371 30.9575C44.7336 31.3103 45.2089 31.4867 45.7969 31.4867ZM57.8751 28.2968C58.1397 28.6888 58.272 29.1053 58.272 29.5463C58.272 30.1833 58.0123 30.7909 57.4929 31.3691C56.9735 31.9375 56.3414 32.3442 55.5966 32.5892C55.3418 32.8636 55.2144 33.1478 55.2144 33.4418C55.2144 33.5986 55.332 33.7456 55.5672 33.8828C55.8024 34.0102 56.1797 34.1817 56.6991 34.3973C57.3851 34.6717 57.9192 34.9265 58.3014 35.1617C58.6836 35.3969 58.8747 35.6811 58.8747 36.0143C58.8747 36.3181 58.6836 36.7003 58.3014 37.1609C57.9192 37.6215 57.4439 38.0233 56.8755 38.3663C56.3169 38.7093 55.7779 38.8808 55.2585 38.8808C54.6901 38.8808 54.0237 38.7877 53.2593 38.6015C52.5047 38.4153 51.8726 38.2291 51.363 38.0429V35.7056H51.9951C52.5341 36.3818 53.078 36.8914 53.6268 37.2344C54.1756 37.5872 54.7979 37.7636 55.4937 37.7636C55.7583 37.7636 55.9935 37.7146 56.1993 37.6166C56.4149 37.5186 56.5815 37.3912 56.6991 37.2344C56.8167 37.0874 56.8755 36.9453 56.8755 36.8081C56.8755 36.5533 56.7236 36.3328 56.4198 36.1466C56.1258 35.9604 55.6701 35.7301 55.0527 35.4557C54.4549 35.2009 54.0041 34.9804 53.7003 34.7942C53.3965 34.5982 53.2446 34.3777 53.2446 34.1327C53.2446 33.8975 53.4014 33.6574 53.715 33.4124C54.0384 33.1674 54.4206 32.9518 54.8616 32.7656C54.646 32.7852 54.4843 32.795 54.3765 32.795C53.8473 32.795 53.3573 32.6823 52.9065 32.4569C52.4655 32.2217 52.1127 31.913 51.8481 31.5308C51.5933 31.1388 51.4659 30.7174 51.4659 30.2666C51.4659 29.7276 51.657 29.2082 52.0392 28.7084C52.4214 28.1988 52.9163 27.7921 53.5239 27.4883C54.1315 27.1747 54.7489 27.0179 55.3761 27.0179C56.0915 27.0179 56.7138 27.2139 57.243 27.6059H59.5803L59.5509 28.2968H57.8751ZM55.1997 31.4867C55.6113 31.4867 55.9249 31.3838 56.1405 31.178C56.3659 30.9722 56.4786 30.6635 56.4786 30.2519C56.4786 29.6835 56.2973 29.2278 55.9347 28.8848C55.5721 28.5418 55.0919 28.3703 54.4941 28.3703C53.6513 28.3703 53.2299 28.7672 53.2299 29.561C53.2299 30.1392 53.4112 30.6047 53.7738 30.9575C54.1364 31.3103 54.6117 31.4867 55.1997 31.4867ZM65.6672 35.0147C65.2458 35.1029 64.7362 35.147 64.1384 35.147C63.4818 35.147 62.8889 34.9804 62.3597 34.6472C61.8403 34.3042 61.4287 33.8436 61.1249 33.2654C60.8309 32.6872 60.6839 32.0453 60.6839 31.3397C60.6839 30.5753 60.9142 29.8648 61.3748 29.2082C61.8452 28.5418 62.4332 28.0126 63.1388 27.6206C63.8444 27.2188 64.5255 27.0179 65.1821 27.0179C66.1327 27.0179 66.8677 27.3903 67.3871 28.1351C67.9163 28.8799 68.176 29.8746 68.1662 31.1192H62.7566C62.8252 31.9032 63.0506 32.5451 63.4328 33.0449C63.815 33.5349 64.3344 33.7799 64.991 33.7799C65.6378 33.7799 66.559 33.3193 67.7546 32.3981L68.1956 33.0008L65.6672 35.0147ZM64.3442 28.3556C63.3348 28.3556 62.8056 29.0514 62.7566 30.443H66.0641C65.9759 29.9432 65.8828 29.5561 65.7848 29.2817C65.6966 29.0073 65.5398 28.7868 65.3144 28.6202C65.089 28.4438 64.7607 28.3556 64.3295 28.3556H64.3442ZM74.6116 28.679C74.4058 28.679 74.1902 28.7329 73.9648 28.8407C73.7394 28.9485 73.4846 29.1445 73.2004 29.4287V33.7358L75.2878 34.3532L74.9644 35.0147H69.9811V34.4855L71.2894 33.4418V29.4434L69.9811 28.6643V28.1351L72.5977 26.8856L73.0828 28.6643L74.5675 27.1355C74.7929 27.0571 75.0575 27.0179 75.3613 27.0179C75.7239 27.0179 76.0375 27.111 76.3021 27.2972C76.5765 27.4834 76.7823 27.748 76.9195 28.091L75.8611 29.414H75.229C75.1898 29.1494 75.1212 28.9632 75.0232 28.8554C74.9252 28.7378 74.788 28.679 74.6116 28.679Z" fill="#FFE602"/>
<path d="M22.5582 28.7672H19.5582V30.9851L21.6786 31.6354L22.5582 28.7672ZM24.2928 29.8844L21.9631 31.7745L21.9826 31.7986L22.0026 31.8222L24.2928 29.8844ZM24.1752 33.383L21.9768 31.3416L21.9754 31.3432L24.1752 33.383ZM22.2936 34.6766L21.1118 31.9192L21.1053 31.922L21.0987 31.9248L22.2936 34.6766ZM18.7215 35.0882L19.0323 32.1043L18.9705 32.0979L18.9086 32.094L18.7215 35.0882ZM14.9583 35.0147H11.9583V38.0147H14.9583V35.0147ZM14.9583 34.4855L13.1026 32.1283L11.9583 33.0291V34.4855H14.9583ZM16.3401 33.3977L18.1957 35.7549L19.3401 34.8541V33.3977H16.3401ZM16.3401 24.5924H19.3401V22.3843L17.2318 21.728L16.3401 24.5924ZM14.7819 24.1073L12.1106 22.742L10.4898 25.9131L13.8901 26.9717L14.7819 24.1073ZM15.12 23.4458V20.4458H13.2842L12.4487 22.0805L15.12 23.4458ZM19.5153 23.3576L19.3391 20.3628L19.3251 20.3636L19.3112 20.3645L19.5153 23.3576ZM22.7493 23.681L21.4076 26.3643L21.4076 26.3643L22.7493 23.681ZM23.9253 24.7247L21.3781 26.3096L21.3988 26.3429L21.4204 26.3756L23.9253 24.7247ZM23.8518 27.5912L21.4392 25.808L21.4266 25.8252L21.4142 25.8425L23.8518 27.5912ZM22.5582 28.7525L21.0147 26.18L19.5582 27.0539V28.7525H22.5582ZM21.588 25.0481L19.264 26.9452L19.2755 26.9593L19.2872 26.9733L21.588 25.0481ZM18.3393 24.7835L16.6875 22.2792L15.3393 23.1684V24.7835H18.3393ZM18.3393 28.6643H15.3393V31.6643H18.3393V28.6643ZM21.7056 28.2086L23.7596 30.3951L23.7596 30.3951L21.7056 28.2086ZM20.5737 34.0151H17.5737V37.0151H20.5737V34.0151ZM22.176 33.5006L20.2282 31.2189L20.2142 31.2308L20.2005 31.2429L22.176 33.5006ZM22.1319 30.3107L19.9418 32.361L19.9418 32.361L22.1319 30.3107ZM20.2209 29.5757L20.3255 26.5775L20.0598 26.5683L19.7966 26.6059L20.2209 29.5757ZM18.3393 29.5904V26.5904H15.3393V29.5904H18.3393ZM18.3393 33.6329H15.3393V35.6818L17.2477 36.4273L18.3393 33.6329ZM20.5737 34.0004H23.5737V31.0004H20.5737V34.0004ZM21.6786 31.6354C21.8136 31.6768 21.8862 31.7168 21.9186 31.7377C21.9483 31.7568 21.9582 31.7685 21.9631 31.7745L26.6225 27.9943C25.7717 26.9457 24.6549 26.2723 23.4377 25.899L21.6786 31.6354ZM22.0026 31.8222C22.0095 31.8304 21.9859 31.8035 21.964 31.7443C21.9419 31.6845 21.9396 31.6404 21.9396 31.6337H27.9396C27.9396 30.2547 27.4641 28.9879 26.5829 27.9466L22.0026 31.8222ZM21.9396 31.6337C21.9396 31.58 21.9453 31.5234 21.9572 31.4675C21.969 31.4117 21.9849 31.3662 21.9995 31.3328C22.0286 31.2662 22.0418 31.2717 21.9768 31.3416L26.3735 35.4244C27.2826 34.4453 27.9396 33.1628 27.9396 31.6337H21.9396ZM21.9754 31.3432C21.7926 31.5402 21.5258 31.7417 21.1118 31.9192L23.4753 37.434C24.5705 36.9647 25.5581 36.3038 26.375 35.4228L21.9754 31.3432ZM21.0987 31.9248C20.6567 32.1167 20.3533 32.1617 20.1621 32.1617V38.1617C21.3232 38.1617 22.4408 37.8833 23.4884 37.4284L21.0987 31.9248ZM20.1621 32.1617C19.7722 32.1617 19.3958 32.1422 19.0323 32.1043L18.4106 38.0721C18.9879 38.1322 19.572 38.1617 20.1621 38.1617V32.1617ZM18.9086 32.094C18.1039 32.0437 17.4234 32.0147 16.8987 32.0147V38.0147C17.2364 38.0147 17.771 38.0347 18.5343 38.0824L18.9086 32.094ZM16.8987 32.0147H14.9583V38.0147H16.8987V32.0147ZM17.9583 35.0147V34.4855H11.9583V35.0147H17.9583ZM16.8139 36.8427L18.1957 35.7549L14.4844 31.0405L13.1026 32.1283L16.8139 36.8427ZM19.3401 33.3977V24.5924H13.3401V33.3977H19.3401ZM17.2318 21.728L15.6736 21.2429L13.8901 26.9717L15.4483 27.4568L17.2318 21.728ZM17.4532 25.4726L17.7913 24.8111L12.4487 22.0805L12.1106 22.742L17.4532 25.4726ZM15.12 26.4458H16.884V20.4458H15.12V26.4458ZM16.884 26.4458C17.8417 26.4458 18.7869 26.4142 19.7193 26.3506L19.3112 20.3645C18.5188 20.4186 17.7098 20.4458 16.884 20.4458V26.4458ZM19.6914 26.3524C20.3492 26.3137 20.7652 26.2988 20.9853 26.2988V20.2988C20.5781 20.2988 20.0142 20.3231 19.3391 20.3628L19.6914 26.3524ZM20.9853 26.2988C21.2647 26.2988 21.3798 26.3504 21.4076 26.3643L24.0909 20.9977C23.0996 20.502 22.0386 20.2988 20.9853 20.2988V26.2988ZM21.4076 26.3643C21.4478 26.3844 21.4508 26.3916 21.4341 26.3768C21.4264 26.3699 21.4164 26.36 21.4056 26.3473C21.3949 26.3346 21.3856 26.3216 21.3781 26.3096L26.4724 23.1398C25.8773 22.1834 25.0464 21.4755 24.0909 20.9977L21.4076 26.3643ZM21.4204 26.3756C21.4019 26.3476 21.3806 26.3052 21.366 26.2553C21.3516 26.2063 21.3516 26.177 21.3516 26.18H27.3516C27.3516 25.0812 27.0519 24.0171 26.4301 23.0738L21.4204 26.3756ZM21.3516 26.18C21.3516 26.0775 21.3703 25.9792 21.3987 25.8988C21.4258 25.8222 21.4509 25.7922 21.4392 25.808L26.2643 29.3744C26.9218 28.4848 27.3516 27.402 27.3516 26.18H21.3516ZM21.4142 25.8425C21.3592 25.9191 21.2491 26.0394 21.0147 26.18L24.1017 31.325C24.9452 30.8188 25.6975 30.1649 26.2894 29.3399L21.4142 25.8425ZM19.5582 28.7525V28.7672H25.5582V28.7525H19.5582ZM25.1907 26.9003C25.1907 25.5922 24.8302 24.2481 23.8888 23.1229L19.2872 26.9733C19.2626 26.944 19.2404 26.9114 19.222 26.8779C19.2037 26.8446 19.1929 26.8171 19.1872 26.7996C19.1758 26.7644 19.1907 26.7882 19.1907 26.9003H25.1907ZM23.9119 23.151C22.8114 21.8029 21.2687 21.3278 19.8387 21.3278V27.3278C19.9206 27.3278 19.8575 27.3408 19.7144 27.2819C19.5536 27.2157 19.3886 27.0979 19.264 26.9452L23.9119 23.151ZM19.8387 21.3278C18.6978 21.3278 17.626 21.6602 16.6875 22.2792L19.991 27.2878C19.9941 27.2858 19.9732 27.2995 19.9319 27.3121C19.8901 27.3248 19.8553 27.3278 19.8387 27.3278V21.3278ZM15.3393 24.7835V28.6643H21.3393V24.7835H15.3393ZM18.3393 31.6643H20.3532V25.6643H18.3393V31.6643ZM20.3532 31.6643C21.4559 31.6643 22.7274 31.3647 23.7596 30.3951L19.6515 26.0221C19.8261 25.8581 20.014 25.759 20.167 25.7074C20.3085 25.6597 20.3843 25.6643 20.3532 25.6643V31.6643ZM23.7596 30.3951C24.8453 29.3753 25.1907 28.0506 25.1907 26.9003H19.1907C19.1907 26.9003 19.1907 26.8987 19.1908 26.8955C19.1909 26.8924 19.1911 26.8876 19.1916 26.8813C19.1925 26.8688 19.1945 26.8498 19.1985 26.825C19.2065 26.7752 19.2229 26.7013 19.2565 26.6107C19.3289 26.4156 19.459 26.203 19.6515 26.0221L23.7596 30.3951ZM20.5737 37.0151C21.755 37.0151 23.0662 36.708 24.1515 35.7583L20.2005 31.2429C20.3358 31.1244 20.4717 31.0598 20.5642 31.0301C20.6472 31.0035 20.6622 31.0151 20.5737 31.0151V37.0151ZM24.1238 35.7823C25.2613 34.8112 25.7787 33.4812 25.7787 32.1188H19.7787C19.7787 32.0569 19.7906 31.8993 19.8782 31.6985C19.9689 31.4905 20.1014 31.3272 20.2282 31.2189L24.1238 35.7823ZM25.7787 32.1188C25.7787 30.7589 25.3656 29.3752 24.3219 28.2604L19.9418 32.361C19.9107 32.3277 19.8795 32.2875 19.8518 32.2419C19.8241 32.1964 19.8048 32.1537 19.7923 32.1186C19.7668 32.0475 19.7787 32.0355 19.7787 32.1188H25.7787ZM24.3219 28.2604C23.1853 27.0463 21.686 26.625 20.3255 26.5775L20.1163 32.5739C20.2802 32.5796 20.3095 32.603 20.2538 32.5815C20.224 32.5701 20.1753 32.5478 20.1164 32.5089C20.0568 32.4695 19.9968 32.4198 19.9418 32.361L24.3219 28.2604ZM19.7966 26.6059C19.8749 26.5947 19.9275 26.5916 19.9419 26.5909C19.9593 26.59 19.9606 26.5904 19.9416 26.5904V32.5904C20.118 32.5904 20.3725 32.5845 20.6451 32.5455L19.7966 26.6059ZM19.9416 26.5904H18.3393V32.5904H19.9416V26.5904ZM15.3393 29.5904V33.6329H21.3393V29.5904H15.3393ZM17.2477 36.4273C18.3053 36.8404 19.438 37.0004 20.5737 37.0004V31.0004C19.9846 31.0004 19.6277 30.9154 19.4308 30.8385L17.2477 36.4273ZM17.5737 34.0004V34.0151H23.5737V34.0004H17.5737ZM30.4085 35.0147V38.0147H32.2443L33.0798 36.38L30.4085 35.0147ZM26.2043 35.0147H23.2043V38.0147H26.2043V35.0147ZM26.2043 34.4855L24.3335 32.1403L23.2043 33.0411V34.4855H26.2043ZM27.5126 33.4418L29.3835 35.787L30.5126 34.8862V33.4418H27.5126ZM27.5126 24.5924H30.5126V23.0261L29.2275 22.1308L27.5126 24.5924ZM26.2043 23.681H23.2043V25.2473L24.4895 26.1426L26.2043 23.681ZM26.2043 23.1518L25.137 20.3481L23.2043 21.0838V23.1518H26.2043ZM28.7915 22.1669V19.1669H28.2398L27.7242 19.3632L28.7915 22.1669ZM29.4236 22.1669H32.4236V19.1669H29.4236V22.1669ZM29.4236 33.8534H26.4236V35.927L28.3634 36.6598L29.4236 33.8534ZM30.7466 34.3532L33.4179 35.7185L34.9444 32.7321L31.8068 31.5468L30.7466 34.3532ZM30.4085 32.0147H26.2043V38.0147H30.4085V32.0147ZM29.2043 35.0147V34.4855H23.2043V35.0147H29.2043ZM28.0752 36.8307L29.3835 35.787L25.6418 31.0966L24.3335 32.1403L28.0752 36.8307ZM30.5126 33.4418V24.5924H24.5126V33.4418H30.5126ZM29.2275 22.1308L27.9192 21.2194L24.4895 26.1426L25.7978 27.054L29.2275 22.1308ZM29.2043 23.681V23.1518H23.2043V23.681H29.2043ZM27.2717 25.9555L29.8589 24.9706L27.7242 19.3632L25.137 20.3481L27.2717 25.9555ZM28.7915 25.1669H29.4236V19.1669H28.7915V25.1669ZM26.4236 22.1669V33.8534H32.4236V22.1669H26.4236ZM28.3634 36.6598L29.6864 37.1596L31.8068 31.5468L30.4838 31.047L28.3634 36.6598ZM28.0753 32.9879L27.7372 33.6494L33.0798 36.38L33.4179 35.7185L28.0753 32.9879ZM38.4795 27.5324L36.8263 30.0358L36.8535 30.0537L36.8811 30.0711L38.4795 27.5324ZM39.7143 28.8995L42.3885 27.5398L42.3885 27.5398L39.7143 28.8995ZM39.4497 32.9714L36.9988 31.2413L36.9938 31.2486L39.4497 32.9714ZM37.7004 34.559L39.1574 37.1815L39.1712 37.1738L39.1849 37.166L37.7004 34.559ZM33.8784 34.6472L32.2252 37.1506L32.2524 37.1685L32.28 37.1859L33.8784 34.6472ZM32.6436 33.2654L29.9695 34.6251L29.9786 34.643L29.9879 34.6608L32.6436 33.2654ZM32.8935 29.2082L30.4426 27.4781L30.4376 27.4854L32.8935 29.2082ZM34.6575 27.6206L36.1145 30.2431L36.1283 30.2354L36.142 30.2276L34.6575 27.6206ZM34.8339 32.9126L32.2945 34.51L32.3037 34.5245L32.313 34.539L34.8339 32.9126ZM37.6857 33.236L35.1992 31.5576L35.1992 31.5576L37.6857 33.236ZM37.4946 29.267L34.9552 30.8644L34.9703 30.8884L34.9859 30.9121L37.4946 29.267ZM36.7008 30.0179C36.7744 30.0179 36.8069 30.027 36.8117 30.0284C36.8152 30.0294 36.8164 30.03 36.8167 30.0301C36.8171 30.0303 36.8201 30.0316 36.8263 30.0358L40.1327 25.029C39.0877 24.3389 37.9115 24.0179 36.7008 24.0179V30.0179ZM36.8811 30.0711C36.9343 30.1046 36.9821 30.1451 37.0402 30.2592L42.3885 27.5398C41.8585 26.4975 41.0832 25.6266 40.078 24.9937L36.8811 30.0711ZM37.0402 30.2592C37.1016 30.38 37.1553 30.5499 37.1553 30.8252H43.1553C43.1553 29.6893 42.9151 28.5754 42.3885 27.5398L37.0402 30.2592ZM37.1553 30.8252C37.1553 30.9275 37.1373 31.0452 36.9988 31.2414L41.9006 34.7014C42.703 33.5648 43.1553 32.2517 43.1553 30.8252H37.1553ZM36.9938 31.2486C36.7909 31.5377 36.5413 31.7668 36.2159 31.952L39.1849 37.166C40.2708 36.5476 41.1873 35.7183 41.9057 34.6942L36.9938 31.2486ZM36.2435 31.9365C35.8824 32.1372 35.6995 32.147 35.6571 32.147V38.147C36.928 38.147 38.1073 37.7648 39.1574 37.1815L36.2435 31.9365ZM35.6571 32.147C35.5365 32.147 35.5029 32.1249 35.4769 32.1085L32.28 37.1859C33.3123 37.8359 34.4645 38.147 35.6571 38.147V32.147ZM35.5316 32.1438C35.4556 32.0936 35.3798 32.0231 35.2994 31.87L29.9879 34.6608C30.515 35.6641 31.2625 36.5148 32.2252 37.1506L35.5316 32.1438ZM35.3178 31.9057C35.2564 31.7849 35.2026 31.615 35.2026 31.3397H29.2026C29.2026 32.4756 29.4429 33.5895 29.9695 34.6251L35.3178 31.9057ZM35.2026 31.3397C35.2026 31.2233 35.2245 31.1093 35.3495 30.931L30.4376 27.4854C29.6414 28.6203 29.2026 29.9273 29.2026 31.3397H35.2026ZM35.3444 30.9382C35.5576 30.6362 35.8073 30.4137 36.1145 30.2431L33.2006 24.9981C32.0965 25.6115 31.1702 26.4474 30.4426 27.4781L35.3444 30.9382ZM36.142 30.2276C36.5013 30.023 36.6745 30.0179 36.7008 30.0179V24.0179C35.4139 24.0179 34.225 24.4146 33.173 25.0136L36.142 30.2276ZM35.8482 25.3556C34.5005 25.3556 33.1087 25.9005 32.1961 27.2102C31.4208 28.3228 31.2606 29.6185 31.2606 30.6341H37.2606C37.2606 30.5303 37.2652 30.4523 37.2707 30.3972C37.2734 30.37 37.2762 30.3498 37.2784 30.336C37.2806 30.3222 37.2821 30.3158 37.2821 30.316C37.282 30.3161 37.2802 30.3239 37.2757 30.3383C37.2711 30.3528 37.2635 30.3747 37.2517 30.4028C37.2283 30.4589 37.1871 30.5425 37.119 30.6403C36.9706 30.8532 36.7426 31.0635 36.4483 31.2043C36.1689 31.338 35.9421 31.3556 35.8482 31.3556V25.3556ZM31.2606 30.6341C31.2606 31.9597 31.54 33.3104 32.2945 34.51L37.3733 31.3152C37.3635 31.2996 37.2606 31.1313 37.2606 30.6341H31.2606ZM32.313 34.539C33.2595 36.0059 34.7691 36.824 36.5097 36.824V30.824C36.5767 30.824 36.7611 30.8415 36.9802 30.9607C37.1997 31.0801 37.3163 31.2265 37.3548 31.2862L32.313 34.539ZM36.5097 36.824C37.9108 36.824 39.2883 36.2239 40.1723 34.9144L35.1992 31.5576C35.3322 31.3606 35.5497 31.1447 35.8516 30.9937C36.1426 30.8482 36.3894 30.824 36.5097 30.824V36.824ZM40.1723 34.9144C40.9166 33.8117 41.0826 32.5424 41.0826 31.5161H35.0826C35.0826 31.618 35.0781 31.6953 35.0726 31.7506C35.0671 31.8062 35.0611 31.8336 35.0602 31.8374C35.0574 31.8499 35.0822 31.7309 35.1992 31.5576L40.1723 34.9144ZM41.0826 31.5161C41.0826 30.1822 40.7902 28.8219 40.0034 27.6219L34.9859 30.9121C34.9891 30.9169 35.0106 30.95 35.0332 31.0364C35.0569 31.1271 35.0826 31.2807 35.0826 31.5161H41.0826ZM40.034 27.6696C39.105 26.1927 37.5992 25.3556 35.8482 25.3556V31.3556C35.77 31.3556 35.573 31.3352 35.3434 31.2081C35.1143 31.0813 34.9944 30.9266 34.9552 30.8644L40.034 27.6696ZM48.4723 28.2968V25.2968H42.8278L45.9858 29.9752L48.4723 28.2968ZM48.0901 31.3691L50.3047 33.3928L50.3133 33.3834L50.3219 33.3739L48.0901 31.3691ZM46.1938 32.5892L45.2564 29.7394L44.5217 29.9811L43.9954 30.5478L46.1938 32.5892ZM46.1644 33.8828L44.6528 36.4741L44.6938 36.4981L44.7356 36.5207L46.1644 33.8828ZM47.2963 34.3973L46.1462 37.1681L46.1641 37.1755L46.1821 37.1827L47.2963 34.3973ZM48.8986 35.1617L47.3263 37.7167L47.3263 37.7167L48.8986 35.1617ZM48.8986 37.1609L46.5899 35.2452L46.5899 35.2452L48.8986 37.1609ZM47.4727 38.3663L45.9227 35.7977L45.9128 35.8037L45.9029 35.8098L47.4727 38.3663ZM43.8565 38.6015L43.1378 41.5142L43.1465 41.5163L43.8565 38.6015ZM41.9602 38.0429H38.9602V40.1407L40.9306 40.8607L41.9602 38.0429ZM41.9602 35.7056V32.7056H38.9602V35.7056H41.9602ZM42.5923 35.7056L44.9382 33.8357L44.0375 32.7056H42.5923V35.7056ZM44.224 37.2344L45.8463 34.7109L45.8302 34.7005L45.814 34.6904L44.224 37.2344ZM46.7965 37.6166L45.5551 34.8855L45.5308 34.8965L45.5067 34.908L46.7965 37.6166ZM47.2963 37.2344L44.9537 35.3603L44.9244 35.3969L44.8963 35.4344L47.2963 37.2344ZM47.017 36.1466L45.4119 38.6811L45.4305 38.6929L45.4493 38.7044L47.017 36.1466ZM45.6499 35.4557L46.8683 32.7143L46.8473 32.7049L46.8262 32.6959L45.6499 35.4557ZM44.2975 34.7942L42.6711 37.3151L42.7003 37.3339L42.7298 37.352L44.2975 34.7942ZM44.3122 33.4124L42.5006 31.0211L42.4829 31.0346L42.4653 31.0483L44.3122 33.4124ZM45.4588 32.7656L46.6257 35.5293L45.1872 29.7779L45.4588 32.7656ZM43.5037 32.4569L42.0919 35.104L42.1268 35.1225L42.1621 35.1402L43.5037 32.4569ZM42.4453 31.5308L39.93 33.1658L39.9538 33.2025L39.9787 33.2384L42.4453 31.5308ZM42.6364 28.7084L45.0195 30.5307L45.028 30.5196L45.0364 30.5084L42.6364 28.7084ZM44.1211 27.4883L45.4628 30.1716L45.48 30.163L45.497 30.1542L44.1211 27.4883ZM47.8402 27.6059L46.0545 30.0166L46.8501 30.6059H47.8402V27.6059ZM50.1775 27.6059L53.1748 27.7334L53.3079 24.6059H50.1775V27.6059ZM50.1481 28.2968V31.2968H53.0232L53.1454 28.4243L50.1481 28.2968ZM46.7377 31.178L44.7149 28.9625L44.6903 28.985L44.6663 29.0079L46.7377 31.178ZM46.5319 28.8848L44.4703 31.0642L44.4703 31.0642L46.5319 28.8848ZM44.371 30.9575L42.2789 33.1077L44.371 30.9575ZM45.9858 29.9752C45.9708 29.953 45.9382 29.8978 45.9108 29.8114C45.8828 29.7232 45.8692 29.6311 45.8692 29.5463H51.8692C51.8692 28.4632 51.5326 27.4684 50.9589 26.6184L45.9858 29.9752ZM45.8692 29.5463C45.8692 29.5001 45.8741 29.4521 45.8838 29.4058C45.8934 29.3596 45.9059 29.324 45.9159 29.3007C45.9357 29.2543 45.9362 29.2777 45.8584 29.3643L50.3219 33.3739C51.2218 32.3721 51.8692 31.078 51.8692 29.5463H45.8692ZM45.8755 29.3454C45.7104 29.5261 45.5209 29.6524 45.2564 29.7394L47.1312 35.439C48.3563 35.036 49.431 34.3489 50.3047 33.3928L45.8755 29.3454ZM43.9954 30.5478C43.3717 31.2195 42.8116 32.1999 42.8116 33.4418H48.8116C48.8116 34.0957 48.5063 34.5077 48.3922 34.6306L43.9954 30.5478ZM42.8116 33.4418C42.8116 35.2761 44.1861 36.2019 44.6528 36.4741L47.676 31.2915C47.747 31.3329 47.9923 31.4829 48.2424 31.7956C48.5207 32.1434 48.8116 32.7097 48.8116 33.4418H42.8116ZM44.7356 36.5207C45.1143 36.7259 45.6114 36.9461 46.1462 37.1681L48.4464 31.6265C47.9424 31.4173 47.6849 31.2945 47.5933 31.2449L44.7356 36.5207ZM46.1821 37.1827C46.7968 37.4286 47.1528 37.6099 47.3263 37.7167L50.4709 32.6067C49.88 32.2431 49.1679 31.9148 48.4105 31.6119L46.1821 37.1827ZM47.3263 37.7167C47.2606 37.6762 47.0448 37.5313 46.8391 37.2252C46.6117 36.8871 46.4719 36.4614 46.4719 36.0143H52.4719C52.4719 34.29 51.3955 33.1757 50.4709 32.6067L47.3263 37.7167ZM46.4719 36.0143C46.4719 35.5505 46.612 35.2538 46.6453 35.1872C46.6839 35.1099 46.6881 35.1269 46.5899 35.2452L51.2073 39.0766C51.6667 38.523 52.4719 37.4345 52.4719 36.0143H46.4719ZM46.5899 35.2452C46.4444 35.4206 46.2347 35.6095 45.9227 35.7977L49.0227 40.9349C49.8476 40.4371 50.5884 39.8224 51.2073 39.0766L46.5899 35.2452ZM45.9029 35.8098C45.7987 35.8738 45.7447 35.8919 45.7399 35.8934C45.738 35.894 45.7481 35.8907 45.7691 35.8873C45.7904 35.8838 45.8198 35.8808 45.8557 35.8808V41.8808C47.0574 41.8808 48.1342 41.4805 49.0425 40.9228L45.9029 35.8098ZM45.8557 35.8808C45.5982 35.8808 45.1803 35.8362 44.5665 35.6867L43.1465 41.5163C44.0615 41.7392 44.9765 41.8808 45.8557 41.8808V35.8808ZM44.5752 35.6889C43.885 35.5186 43.3645 35.362 42.9898 35.2251L40.9306 40.8607C41.5751 41.0962 42.3188 41.312 43.1378 41.5141L44.5752 35.6889ZM44.9602 38.0429V35.7056H38.9602V38.0429H44.9602ZM41.9602 38.7056H42.5923V32.7056H41.9602V38.7056ZM40.2464 37.5755C40.9305 38.4338 41.7182 39.206 42.634 39.7784L45.814 34.6904C45.6322 34.5768 45.3321 34.3298 44.9382 33.8357L40.2464 37.5755ZM42.6017 39.7579C43.667 40.4428 44.8599 40.7636 46.0909 40.7636V34.7636C45.9303 34.7636 45.8786 34.7316 45.8463 34.7109L42.6017 39.7579ZM46.0909 40.7636C46.7303 40.7636 47.4177 40.6436 48.0863 40.3252L45.5067 34.908C45.7638 34.7856 45.9808 34.7636 46.0909 34.7636V40.7636ZM48.0379 40.3477C48.6168 40.0846 49.2198 39.6697 49.6963 39.0344L44.8963 35.4344C45.1376 35.1127 45.4074 34.9526 45.5551 34.8855L48.0379 40.3477ZM49.6389 39.1085C50.0252 38.6257 50.4727 37.8412 50.4727 36.8081H44.4727C44.4727 36.0494 44.8026 35.5491 44.9537 35.3603L49.6389 39.1085ZM50.4727 36.8081C50.4727 35.1202 49.3863 34.0801 48.5847 33.5888L45.4493 38.7044C45.356 38.6472 45.1149 38.4826 44.8883 38.1535C44.6379 37.7902 44.4727 37.3205 44.4727 36.8081H50.4727ZM48.6222 33.6121C48.1377 33.3053 47.5198 33.0038 46.8683 32.7143L44.4315 38.1971C45.0148 38.4564 45.3083 38.6155 45.4119 38.6811L48.6222 33.6121ZM46.8262 32.6959C46.2729 32.4601 45.981 32.3073 45.8652 32.2364L42.7298 37.352C43.2217 37.6535 43.8313 37.9417 44.4736 38.2155L46.8262 32.6959ZM45.9239 32.2733C45.995 32.3192 46.2138 32.4716 46.4263 32.7799C46.6616 33.1215 46.8418 33.5908 46.8418 34.1327H40.8418C40.8418 35.8256 41.9478 36.8484 42.6711 37.3151L45.9239 32.2733ZM46.8418 34.1327C46.8418 34.7143 46.641 35.1566 46.4712 35.4166C46.3144 35.6568 46.1691 35.7687 46.1591 35.7765L42.4653 31.0483C41.9161 31.4774 40.8418 32.4912 40.8418 34.1327H46.8418ZM46.1238 35.8037C46.2168 35.7332 46.3744 35.6355 46.6257 35.5293L44.2919 30.0019C43.6613 30.2681 43.0544 30.6016 42.5006 31.0211L46.1238 35.8037ZM45.1872 29.7779C45.1001 29.7858 45.0371 29.7906 44.9944 29.7931C44.9472 29.796 44.9452 29.795 44.9737 29.795V35.795C45.2229 35.795 45.4953 35.7747 45.7304 35.7533L45.1872 29.7779ZM44.9737 29.795C44.8863 29.795 44.8587 29.7803 44.8454 29.7736L42.1621 35.1402C43.0503 35.5843 44.0027 35.795 44.9737 35.795V29.795ZM44.9155 29.8098C44.8992 29.8012 44.8896 29.7949 44.8852 29.7919C44.8809 29.789 44.8809 29.7886 44.8839 29.7912C44.8869 29.7939 44.8917 29.7984 44.8973 29.8047C44.9028 29.8109 44.9078 29.8173 44.9119 29.8232L39.9787 33.2384C40.5353 34.0424 41.262 34.6613 42.0919 35.104L44.9155 29.8098ZM44.9606 29.8958C44.978 29.9226 45.0071 29.9758 45.0303 30.0526C45.0538 30.1302 45.0631 30.205 45.0631 30.2666H39.0631C39.0631 31.3201 39.3713 32.3062 39.93 33.1658L44.9606 29.8958ZM45.0631 30.2666C45.0631 30.3601 45.0451 30.4457 45.0219 30.5087C45.0005 30.5669 44.9866 30.5738 45.0195 30.5307L40.2533 26.886C39.5406 27.8181 39.0631 28.9628 39.0631 30.2666H45.0631ZM45.0364 30.5084C45.1208 30.3959 45.2434 30.2813 45.4628 30.1716L42.7795 24.805C41.7837 25.3029 40.9165 26.0017 40.2364 26.9084L45.0364 30.5084ZM45.497 30.1542C45.7184 30.0399 45.867 30.0179 45.9733 30.0179V24.0179C44.8252 24.0179 43.7391 24.3095 42.7452 24.8224L45.497 30.1542ZM45.9733 30.0179C46.015 30.0179 46.0424 30.0207 46.0575 30.023C46.0723 30.0251 46.0775 30.027 46.0754 30.0263C46.073 30.0256 46.0678 30.0237 46.0615 30.0205C46.0553 30.0173 46.0527 30.0152 46.0545 30.0166L49.6259 25.1952C48.5348 24.387 47.273 24.0179 45.9733 24.0179V30.0179ZM47.8402 30.6059H50.1775V24.6059H47.8402V30.6059ZM47.1802 27.4784L47.1508 28.1693L53.1454 28.4243L53.1748 27.7334L47.1802 27.4784ZM50.1481 25.2968H48.4723V31.2968H50.1481V25.2968ZM45.7969 34.4867C46.6823 34.4867 47.852 34.2617 48.8091 33.3481L44.6663 29.0079C45.1922 28.5059 45.7347 28.4867 45.7969 28.4867V34.4867ZM48.7605 33.3935C49.8037 32.441 50.0758 31.1997 50.0758 30.2519H44.0758C44.0758 30.1918 44.0832 30.01 44.1732 29.7633C44.2695 29.4995 44.4438 29.2101 44.7149 28.9625L48.7605 33.3935ZM50.0758 30.2519C50.0758 28.9845 49.6406 27.6959 48.5935 26.7054L44.4703 31.0642C44.3405 30.9414 44.2259 30.7777 44.1523 30.5928C44.0821 30.4164 44.0758 30.2879 44.0758 30.2519H50.0758ZM48.5935 26.7054C47.567 25.7343 46.295 25.3703 45.0913 25.3703V31.3703C45.1043 31.3703 45.025 31.3721 44.8908 31.3241C44.7477 31.2731 44.5979 31.1849 44.4703 31.0642L48.5935 26.7054ZM45.0913 25.3703C44.2508 25.3703 43.0623 25.5648 42.0863 26.4841C41.0765 27.4352 40.8271 28.6542 40.8271 29.561H46.8271C46.8271 29.674 46.7885 30.2976 46.2 30.8518C45.9309 31.1054 45.6486 31.2405 45.4368 31.307C45.2374 31.3696 45.1067 31.3703 45.0913 31.3703V25.3703ZM40.8271 29.561C40.8271 30.8228 41.2512 32.1077 42.2789 33.1077L46.4631 28.8073C46.5855 28.9264 46.6914 29.0825 46.7585 29.255C46.8226 29.4194 46.8271 29.5354 46.8271 29.561H40.8271ZM42.2789 33.1077C43.2924 34.0937 44.564 34.4867 45.7969 34.4867V28.4867C45.8032 28.4867 45.8981 28.488 46.0433 28.5419C46.1965 28.5987 46.3443 28.6917 46.4631 28.8073L42.2789 33.1077ZM57.8751 28.2968V25.2968H52.2307L55.3886 29.9752L57.8751 28.2968ZM57.4929 31.3691L59.7076 33.3928L59.7162 33.3834L59.7247 33.3739L57.4929 31.3691ZM55.5966 32.5892L54.6592 29.7394L53.9245 29.9811L53.3983 30.5478L55.5966 32.5892ZM55.5672 33.8828L54.0556 36.4741L54.0966 36.4981L54.1384 36.5207L55.5672 33.8828ZM56.6991 34.3973L55.549 37.1681L55.5669 37.1755L55.585 37.1827L56.6991 34.3973ZM58.3014 35.1617L56.7292 37.7167L56.7292 37.7167L58.3014 35.1617ZM58.3014 37.1609L55.9928 35.2452L55.9928 35.2452L58.3014 37.1609ZM56.8755 38.3663L55.3256 35.7977L55.3156 35.8037L55.3058 35.8098L56.8755 38.3663ZM53.2593 38.6015L52.5406 41.5142L52.5493 41.5163L53.2593 38.6015ZM51.363 38.0429H48.363V40.1407L50.3335 40.8607L51.363 38.0429ZM51.363 35.7056V32.7056H48.363V35.7056H51.363ZM51.9951 35.7056L54.3411 33.8357L53.4403 32.7056H51.9951V35.7056ZM53.6268 37.2344L55.2491 34.7109L55.233 34.7005L55.2168 34.6904L53.6268 37.2344ZM56.1993 37.6166L54.9579 34.8855L54.9336 34.8965L54.9095 34.908L56.1993 37.6166ZM56.6991 37.2344L54.3565 35.3603L54.3273 35.3969L54.2992 35.4344L56.6991 37.2344ZM56.4198 36.1466L54.8147 38.6811L54.8333 38.6929L54.8522 38.7044L56.4198 36.1466ZM55.0527 35.4557L56.2712 32.7143L56.2502 32.7049L56.229 32.6959L55.0527 35.4557ZM53.7003 34.7942L52.074 37.3151L52.1031 37.3339L52.1327 37.352L53.7003 34.7942ZM53.715 33.4124L51.9035 31.0211L51.8857 31.0346L51.8681 31.0483L53.715 33.4124ZM54.8616 32.7656L56.0286 35.5293L54.59 29.7779L54.8616 32.7656ZM52.9065 32.4569L51.4948 35.104L51.5296 35.1225L51.5649 35.1402L52.9065 32.4569ZM51.8481 31.5308L49.3328 33.1658L49.3567 33.2025L49.3816 33.2384L51.8481 31.5308ZM52.0392 28.7084L54.4223 30.5307L54.4308 30.5196L54.4392 30.5084L52.0392 28.7084ZM53.5239 27.4883L54.8656 30.1716L54.8828 30.163L54.8999 30.1542L53.5239 27.4883ZM57.243 27.6059L55.4574 30.0166L56.253 30.6059H57.243V27.6059ZM59.5803 27.6059L62.5776 27.7334L62.7107 24.6059H59.5803V27.6059ZM59.5509 28.2968V31.2968H62.426L62.5482 28.4243L59.5509 28.2968ZM56.1405 31.178L54.1177 28.9625L54.0932 28.985L54.0691 29.0079L56.1405 31.178ZM55.9347 28.8848L53.8731 31.0642L53.8731 31.0642L55.9347 28.8848ZM53.7738 30.9575L51.6818 33.1077L53.7738 30.9575ZM55.3886 29.9752C55.3736 29.953 55.3411 29.8978 55.3136 29.8114C55.2856 29.7232 55.272 29.6311 55.272 29.5463H61.272C61.272 28.4632 60.9355 27.4684 60.3617 26.6184L55.3886 29.9752ZM55.272 29.5463C55.272 29.5001 55.2769 29.4521 55.2866 29.4058C55.2962 29.3596 55.3087 29.324 55.3187 29.3007C55.3385 29.2543 55.339 29.2777 55.2612 29.3643L59.7247 33.3739C60.6247 32.3721 61.272 31.078 61.272 29.5463H55.272ZM55.2783 29.3454C55.1132 29.5261 54.9238 29.6524 54.6592 29.7394L56.5341 35.439C57.7591 35.036 58.8339 34.3489 59.7076 33.3928L55.2783 29.3454ZM53.3983 30.5478C52.7746 31.2195 52.2144 32.1999 52.2144 33.4418H58.2144C58.2144 34.0957 57.9091 34.5077 57.795 34.6306L53.3983 30.5478ZM52.2144 33.4418C52.2144 35.2761 53.589 36.2019 54.0556 36.4741L57.0789 31.2915C57.1499 31.3329 57.3951 31.4829 57.6453 31.7956C57.9235 32.1434 58.2144 32.7097 58.2144 33.4418H52.2144ZM54.1384 36.5207C54.5172 36.7259 55.0142 36.9461 55.549 37.1681L57.8493 31.6265C57.3452 31.4173 57.0877 31.2945 56.9961 31.2449L54.1384 36.5207ZM55.585 37.1827C56.1996 37.4286 56.5557 37.6099 56.7292 37.7167L59.8737 32.6067C59.2828 32.2431 58.5707 31.9148 57.8133 31.6119L55.585 37.1827ZM56.7292 37.7167C56.6634 37.6762 56.4477 37.5313 56.2419 37.2252C56.0145 36.8871 55.8747 36.4614 55.8747 36.0143H61.8747C61.8747 34.29 60.7983 33.1757 59.8737 32.6067L56.7292 37.7167ZM55.8747 36.0143C55.8747 35.5505 56.0148 35.2538 56.0481 35.1872C56.0868 35.1099 56.0909 35.1269 55.9928 35.2452L60.6101 39.0766C61.0695 38.523 61.8747 37.4345 61.8747 36.0143H55.8747ZM55.9928 35.2452C55.8472 35.4206 55.6375 35.6095 55.3256 35.7977L58.4255 40.9349C59.2504 40.4371 59.9913 39.8224 60.6101 39.0766L55.9928 35.2452ZM55.3058 35.8098C55.2015 35.8738 55.1476 35.8919 55.1427 35.8934C55.1409 35.894 55.1509 35.8907 55.1719 35.8873C55.1932 35.8838 55.2226 35.8808 55.2585 35.8808V41.8808C56.4602 41.8808 57.537 41.4805 58.4453 40.9228L55.3058 35.8098ZM55.2585 35.8808C55.001 35.8808 54.5831 35.8362 53.9694 35.6867L52.5493 41.5163C53.4644 41.7392 54.3793 41.8808 55.2585 41.8808V35.8808ZM53.9781 35.6889C53.2879 35.5186 52.7673 35.362 52.3926 35.2251L50.3335 40.8607C50.978 41.0962 51.7216 41.312 52.5406 41.5141L53.9781 35.6889ZM54.363 38.0429V35.7056H48.363V38.0429H54.363ZM51.363 38.7056H51.9951V32.7056H51.363V38.7056ZM49.6492 37.5755C50.3334 38.4338 51.121 39.206 52.0369 39.7784L55.2168 34.6904C55.0351 34.5768 54.7349 34.3298 54.3411 33.8357L49.6492 37.5755ZM52.0046 39.7579C53.0699 40.4428 54.2627 40.7636 55.4937 40.7636V34.7636C55.3332 34.7636 55.2814 34.7316 55.2491 34.7109L52.0046 39.7579ZM55.4937 40.7636C56.1331 40.7636 56.8205 40.6436 57.4892 40.3252L54.9095 34.908C55.1666 34.7856 55.3836 34.7636 55.4937 34.7636V40.7636ZM57.4408 40.3477C58.0196 40.0846 58.6227 39.6697 59.0991 39.0344L54.2992 35.4344C54.5404 35.1127 54.8103 34.9526 54.9579 34.8855L57.4408 40.3477ZM59.0418 39.1085C59.428 38.6257 59.8755 37.8412 59.8755 36.8081H53.8755C53.8755 36.0494 54.2055 35.5491 54.3565 35.3603L59.0418 39.1085ZM59.8755 36.8081C59.8755 35.1202 58.7891 34.0801 57.9875 33.5888L54.8522 38.7044C54.7589 38.6472 54.5178 38.4826 54.2911 38.1535C54.0408 37.7902 53.8755 37.3205 53.8755 36.8081H59.8755ZM58.025 33.6121C57.5406 33.3053 56.9226 33.0038 56.2712 32.7143L53.8343 38.1971C54.4177 38.4564 54.7111 38.6155 54.8147 38.6811L58.025 33.6121ZM56.229 32.6959C55.6757 32.4601 55.3838 32.3073 55.268 32.2364L52.1327 37.352C52.6245 37.6535 53.2342 37.9417 53.8765 38.2155L56.229 32.6959ZM55.3267 32.2733C55.3978 32.3192 55.6167 32.4716 55.8291 32.7799C56.0644 33.1215 56.2446 33.5908 56.2446 34.1327H50.2446C50.2446 35.8256 51.3506 36.8484 52.074 37.3151L55.3267 32.2733ZM56.2446 34.1327C56.2446 34.7143 56.0438 35.1566 55.8741 35.4166C55.7172 35.6568 55.572 35.7687 55.562 35.7765L51.8681 31.0483C51.3189 31.4774 50.2446 32.4912 50.2446 34.1327H56.2446ZM55.5266 35.8037C55.6197 35.7332 55.7772 35.6355 56.0286 35.5293L53.6947 30.0019C53.0641 30.2681 52.4572 30.6016 51.9035 31.0211L55.5266 35.8037ZM54.59 29.7779C54.503 29.7858 54.4399 29.7906 54.3972 29.7931C54.35 29.796 54.348 29.795 54.3765 29.795V35.795C54.6257 35.795 54.8981 35.7747 55.1333 35.7533L54.59 29.7779ZM54.3765 29.795C54.2891 29.795 54.2615 29.7803 54.2482 29.7736L51.5649 35.1402C52.4532 35.5843 53.4056 35.795 54.3765 35.795V29.795ZM54.3183 29.8098C54.302 29.8012 54.2924 29.7949 54.288 29.7919C54.2837 29.789 54.2837 29.7886 54.2867 29.7912C54.2898 29.7939 54.2945 29.7984 54.3001 29.8047C54.3057 29.8109 54.3107 29.8173 54.3147 29.8232L49.3816 33.2384C49.9382 34.0424 50.6649 34.6613 51.4948 35.104L54.3183 29.8098ZM54.3635 29.8958C54.3809 29.9226 54.4099 29.9758 54.4331 30.0526C54.4566 30.1302 54.4659 30.205 54.4659 30.2666H48.4659C48.4659 31.3201 48.7741 32.3062 49.3328 33.1658L54.3635 29.8958ZM54.4659 30.2666C54.4659 30.3601 54.4479 30.4457 54.4248 30.5087C54.4033 30.5669 54.3894 30.5738 54.4223 30.5307L49.6562 26.886C48.9435 27.8181 48.4659 28.9628 48.4659 30.2666H54.4659ZM54.4392 30.5084C54.5236 30.3959 54.6462 30.2813 54.8656 30.1716L52.1823 24.805C51.1865 25.3029 50.3193 26.0017 49.6392 26.9084L54.4392 30.5084ZM54.8999 30.1542C55.1212 30.0399 55.2699 30.0179 55.3761 30.0179V24.0179C54.228 24.0179 53.1419 24.3095 52.148 24.8224L54.8999 30.1542ZM55.3761 30.0179C55.4178 30.0179 55.4452 30.0207 55.4603 30.023C55.4752 30.0251 55.4803 30.027 55.4782 30.0263C55.4759 30.0256 55.4706 30.0237 55.4644 30.0205C55.4581 30.0173 55.4556 30.0152 55.4574 30.0166L59.0287 25.1952C57.9376 24.387 56.6759 24.0179 55.3761 24.0179V30.0179ZM57.243 30.6059H59.5803V24.6059H57.243V30.6059ZM56.5831 27.4784L56.5537 28.1693L62.5482 28.4243L62.5776 27.7334L56.5831 27.4784ZM59.5509 25.2968H57.8751V31.2968H59.5509V25.2968ZM55.1997 34.4867C56.0852 34.4867 57.2548 34.2617 58.212 33.3481L54.0691 29.0079C54.5951 28.5059 55.1375 28.4867 55.1997 28.4867V34.4867ZM58.1634 33.3935C59.2065 32.441 59.4786 31.1997 59.4786 30.2519H53.4786C53.4786 30.1918 53.486 30.01 53.5761 29.7633C53.6724 29.4995 53.8466 29.2101 54.1177 28.9625L58.1634 33.3935ZM59.4786 30.2519C59.4786 28.9845 59.0435 27.6959 57.9963 26.7054L53.8731 31.0642C53.7433 30.9414 53.6287 30.7777 53.5552 30.5928C53.485 30.4164 53.4786 30.2879 53.4786 30.2519H59.4786ZM57.9963 26.7054C56.9698 25.7343 55.6978 25.3703 54.4941 25.3703V31.3703C54.5072 31.3703 54.4278 31.3721 54.2936 31.3241C54.1506 31.2731 54.0008 31.1849 53.8731 31.0642L57.9963 26.7054ZM54.4941 25.3703C53.6536 25.3703 52.4652 25.5648 51.4891 26.4841C50.4793 27.4352 50.2299 28.6542 50.2299 29.561H56.2299C56.2299 29.674 56.1913 30.2976 55.6029 30.8518C55.3337 31.1054 55.0514 31.2405 54.8397 31.307C54.6403 31.3696 54.5095 31.3703 54.4941 31.3703V25.3703ZM50.2299 29.561C50.2299 30.8228 50.654 32.1077 51.6818 33.1077L55.8659 28.8073C55.9883 28.9264 56.0942 29.0825 56.1614 29.255C56.2254 29.4194 56.2299 29.5354 56.2299 29.561H50.2299ZM51.6818 33.1077C52.6952 34.0937 53.9668 34.4867 55.1997 34.4867V28.4867C55.2061 28.4867 55.301 28.488 55.4461 28.5419C55.5993 28.5987 55.7471 28.6917 55.8659 28.8073L51.6818 33.1077ZM65.6672 35.0147L66.2818 37.9511L66.979 37.8051L67.5363 37.3613L65.6672 35.0147ZM62.3597 34.6472L60.7065 37.1506L60.7337 37.1685L60.7612 37.1859L62.3597 34.6472ZM61.1249 33.2654L58.4507 34.6251L58.4598 34.643L58.4692 34.6608L61.1249 33.2654ZM61.3748 29.2082L58.9239 27.4781L58.9188 27.4854L61.3748 29.2082ZM63.1388 27.6206L64.5957 30.2431L64.6095 30.2354L64.6233 30.2276L63.1388 27.6206ZM67.3871 28.1351L64.9263 29.8511L64.9339 29.862L64.9415 29.8727L67.3871 28.1351ZM68.1662 31.1192V34.1192H71.1427L71.1661 31.1428L68.1662 31.1192ZM62.7566 31.1192V28.1192H59.4826L59.768 31.3807L62.7566 31.1192ZM63.4328 33.0449L61.0497 34.8673L61.0584 34.8787L61.0673 34.89L63.4328 33.0449ZM67.7546 32.3981L70.1757 30.6266L68.3597 28.1447L65.9236 30.0217L67.7546 32.3981ZM68.1956 33.0008L70.0647 35.3474L72.3172 33.5533L70.6167 31.2293L68.1956 33.0008ZM62.7566 30.443L59.7584 30.3374L59.6491 33.443H62.7566V30.443ZM66.0641 30.443V33.443H69.6398L69.0184 29.9216L66.0641 30.443ZM65.7848 29.2817L62.9287 30.1997L62.9434 30.2455L62.9596 30.2907L65.7848 29.2817ZM65.3144 28.6202L63.4655 30.9827L63.498 31.0082L63.5312 31.0327L65.3144 28.6202ZM65.0526 32.0783C64.8942 32.1115 64.6029 32.147 64.1384 32.147V38.147C64.8695 38.147 65.5974 38.0943 66.2818 37.9511L65.0526 32.0783ZM64.1384 32.147C64.0178 32.147 63.9842 32.1249 63.9581 32.1085L60.7612 37.1859C61.7936 37.8359 62.9458 38.147 64.1384 38.147V32.147ZM64.0129 32.1438C63.9368 32.0936 63.8611 32.0231 63.7806 31.87L58.4692 34.6608C58.9963 35.6641 59.7437 36.5148 60.7065 37.1506L64.0129 32.1438ZM63.799 31.9057C63.7376 31.7849 63.6839 31.615 63.6839 31.3397H57.6839C57.6839 32.4756 57.9241 33.5895 58.4507 34.6251L63.799 31.9057ZM63.6839 31.3397C63.6839 31.2233 63.7057 31.1093 63.8308 30.931L58.9188 27.4854C58.1226 28.6203 57.6839 29.9273 57.6839 31.3397H63.6839ZM63.8257 30.9382C64.0389 30.6362 64.2886 30.4137 64.5957 30.2431L61.6819 24.9981C60.5778 25.6115 59.6515 26.4474 58.9239 27.4781L63.8257 30.9382ZM64.6233 30.2276C64.9826 30.023 65.1558 30.0179 65.1821 30.0179V24.0179C63.8952 24.0179 62.7062 24.4146 61.6543 25.0136L64.6233 30.2276ZM65.1821 30.0179C65.2238 30.0179 65.2294 30.0219 65.2074 30.0171C65.1839 30.0119 65.1417 29.9993 65.0904 29.9733C65.0386 29.9471 64.9947 29.9159 64.9618 29.8866C64.93 29.8583 64.9199 29.8418 64.9263 29.8511L69.8478 26.4191C68.7369 24.826 67.059 24.0179 65.1821 24.0179V30.0179ZM64.9415 29.8727C64.994 29.9466 65.1729 30.2575 65.1663 31.0956L71.1661 31.1428C71.1791 29.4917 70.8386 27.8132 69.8326 26.3975L64.9415 29.8727ZM68.1662 28.1192H62.7566V34.1192H68.1662V28.1192ZM59.768 31.3807C59.8738 32.5901 60.2443 33.8141 61.0497 34.8673L65.8159 31.2225C65.8568 31.2761 65.7765 31.2163 65.7452 30.8577L59.768 31.3807ZM61.0673 34.89C62.0542 36.1553 63.4707 36.7799 64.991 36.7799V30.7799C65.0418 30.7799 65.1946 30.7912 65.3888 30.8829C65.5882 30.9769 65.7247 31.1054 65.7983 31.1998L61.0673 34.89ZM64.991 36.7799C65.9762 36.7799 66.8521 36.446 67.5086 36.1177C68.2013 35.7714 68.8985 35.3039 69.5856 34.7745L65.9236 30.0217C65.415 30.4135 65.0539 30.6369 64.8253 30.7512C64.7153 30.8062 64.6699 30.8187 64.682 30.8152C64.692 30.8122 64.8028 30.7799 64.991 30.7799V36.7799ZM65.3335 34.1696L65.7745 34.7723L70.6167 31.2293L70.1757 30.6266L65.3335 34.1696ZM66.3265 30.6542L63.7981 32.6681L67.5363 37.3613L70.0647 35.3474L66.3265 30.6542ZM64.3442 25.3556C63.0668 25.3556 61.727 25.8456 60.8024 27.0613C59.9995 28.117 59.7928 29.3606 59.7584 30.3374L65.7547 30.5486C65.7693 30.1338 65.8518 30.3337 65.5781 30.6936C65.4197 30.9017 65.1915 31.0937 64.9133 31.2195C64.6488 31.3392 64.4361 31.3556 64.3442 31.3556V25.3556ZM62.7566 33.443H66.0641V27.443H62.7566V33.443ZM69.0184 29.9216C68.919 29.3584 68.7913 28.7803 68.61 28.2727L62.9596 30.2907C62.9596 30.2907 62.9599 30.2918 62.9607 30.294C62.9614 30.2962 62.9625 30.2995 62.9639 30.3038C62.9667 30.3125 62.9705 30.3249 62.9752 30.3412C62.9848 30.3744 62.997 30.4199 63.0113 30.4793C63.0402 30.5997 63.0736 30.7594 63.1097 30.9644L69.0184 29.9216ZM68.6409 28.3637C68.3662 27.5092 67.8434 26.7589 67.0976 26.2077L63.5312 31.0327C63.3984 30.9346 63.2679 30.8062 63.1562 30.6491C63.0449 30.4927 62.9726 30.3364 62.9287 30.1997L68.6409 28.3637ZM67.1633 26.2577C66.2019 25.5053 65.1071 25.3556 64.3295 25.3556V31.3556C64.349 31.3556 64.2677 31.3585 64.1207 31.319C63.9675 31.2779 63.7238 31.1849 63.4655 30.9827L67.1633 26.2577ZM64.3295 31.3556H64.3442V25.3556H64.3295V31.3556ZM73.9648 28.8407L72.6704 26.1343L72.6704 26.1343L73.9648 28.8407ZM73.2004 29.4287L71.079 27.3074L70.2004 28.1861V29.4287H73.2004ZM73.2004 33.7358H70.2004V35.9769L72.3495 36.6126L73.2004 33.7358ZM75.2878 34.3532L77.9829 35.6708L79.5415 32.4829L76.1386 31.4764L75.2878 34.3532ZM74.9644 35.0147V38.0147H76.837L77.6595 36.3323L74.9644 35.0147ZM69.9811 35.0147H66.9811V38.0147H69.9811V35.0147ZM69.9811 34.4855L68.1102 32.1403L66.9811 33.0411V34.4855H69.9811ZM71.2894 33.4418L73.1602 35.787L74.2894 34.8862V33.4418H71.2894ZM71.2894 29.4434H74.2894V27.7383L72.8243 26.8658L71.2894 29.4434ZM69.9811 28.6643H66.9811V30.3694L68.4461 31.2419L69.9811 28.6643ZM69.9811 28.1351L68.6883 25.4279L66.9811 26.2432V28.1351H69.9811ZM72.5977 26.8856L75.4919 26.0962L74.5467 22.6304L71.3049 24.1784L72.5977 26.8856ZM73.0828 28.6643L70.1885 29.4537L71.5719 34.5262L75.2349 30.7544L73.0828 28.6643ZM74.5675 27.1355L73.5819 24.302L72.9105 24.5355L72.4153 25.0454L74.5675 27.1355ZM76.3021 27.2972L74.5756 29.7506L74.5964 29.7653L74.6176 29.7796L76.3021 27.2972ZM76.9195 28.091L79.2621 29.9651L80.3541 28.6L79.7049 26.9768L76.9195 28.091ZM75.8611 29.414V32.414H77.3029L78.2037 31.2881L75.8611 29.414ZM75.229 29.414L72.2613 29.8536L72.6407 32.414H75.229V29.414ZM75.0232 28.8554L72.7185 30.776L72.7599 30.8256L72.8033 30.8734L75.0232 28.8554ZM74.6116 25.679C73.8722 25.679 73.2149 25.8739 72.6704 26.1343L75.2591 31.5471C75.1654 31.5919 74.9393 31.679 74.6116 31.679V25.679ZM72.6704 26.1343C72.009 26.4506 71.4758 26.9106 71.079 27.3074L75.3217 31.55C75.3565 31.5152 75.3838 31.4897 75.4036 31.4721C75.4134 31.4633 75.4209 31.4569 75.4261 31.4526C75.4313 31.4483 75.4339 31.4463 75.4337 31.4464C75.4336 31.4465 75.4304 31.449 75.4241 31.4534C75.4177 31.4579 75.4077 31.4647 75.3941 31.4733C75.3677 31.4901 75.3225 31.5168 75.2591 31.5471L72.6704 26.1343ZM70.2004 29.4287V33.7358H76.2004V29.4287H70.2004ZM72.3495 36.6126L74.4369 37.23L76.1386 31.4764L74.0512 30.859L72.3495 36.6126ZM72.5926 33.0356L72.2692 33.6971L77.6595 36.3323L77.9829 35.6708L72.5926 33.0356ZM74.9644 32.0147H69.9811V38.0147H74.9644V32.0147ZM72.9811 35.0147V34.4855H66.9811V35.0147H72.9811ZM71.8519 36.8307L73.1602 35.787L69.4185 31.0966L68.1102 32.1403L71.8519 36.8307ZM74.2894 33.4418V29.4434H68.2894V33.4418H74.2894ZM72.8243 26.8658L71.516 26.0867L68.4461 31.2419L69.7544 32.021L72.8243 26.8658ZM72.9811 28.6643V28.1351H66.9811V28.6643H72.9811ZM71.2738 30.8423L73.8904 29.5928L71.3049 24.1784L68.6883 25.4279L71.2738 30.8423ZM69.7034 27.675L70.1885 29.4537L75.977 27.8749L75.4919 26.0962L69.7034 27.675ZM75.2349 30.7544L76.7196 29.2256L72.4153 25.0454L70.9306 26.5742L75.2349 30.7544ZM75.553 29.969C75.4686 29.9984 75.4062 30.0102 75.3746 30.0149C75.3434 30.0195 75.3371 30.0179 75.3613 30.0179V24.0179C74.8092 24.0179 74.1973 24.088 73.5819 24.302L75.553 29.969ZM75.3613 30.0179C75.2845 30.0179 75.1632 30.0078 75.0146 29.9637C74.863 29.9187 74.7123 29.8468 74.5756 29.7506L78.0285 24.8438C77.1984 24.2596 76.2642 24.0179 75.3613 24.0179V30.0179ZM74.6176 29.7796C74.4919 29.6944 74.382 29.5901 74.2942 29.4771C74.2079 29.3663 74.1593 29.2682 74.134 29.2052L79.7049 26.9768C79.3717 26.144 78.8118 25.3748 77.9866 24.8148L74.6176 29.7796ZM74.5769 26.2169L73.5185 27.5399L78.2037 31.2881L79.2621 29.9651L74.5769 26.2169ZM75.8611 26.414H75.229V32.414H75.8611V26.414ZM78.1966 28.9744C78.133 28.545 77.9556 27.6212 77.243 26.8374L72.8033 30.8734C72.5171 30.5586 72.387 30.2592 72.3331 30.113C72.2764 29.9592 72.2623 29.8598 72.2613 29.8536L78.1966 28.9744ZM77.3278 26.9348C76.5695 26.0248 75.5268 25.679 74.6116 25.679V31.679C74.3662 31.679 74.0313 31.6375 73.665 31.4805C73.2871 31.3186 72.9645 31.0712 72.7185 30.776L77.3278 26.9348Z" fill="black" mask="url(#path-1-outside-1_13_2)"/>
</svg>
